<svg width="150px" height="150px" viewBox="0 0 150 150" version="1.1" xmlns="http://www.w3.org/2000/svg" xmlns:xlink="http://www.w3.org/1999/xlink">
  <g stroke="none" stroke-width="1" fill="none" fill-rule="evenodd" opacity="0.3">
    <path d="M55.7803468,75 C55.7803468,65.161597 63.8728324,57.1768061 73.8439306,57.1768061 C83.8150289,57.1768061 91.9075145,65.161597 91.9075145,75 C91.9075145,84.838403 83.8150289,92.8231939 73.8439306,92.8231939 C63.8728324,92.9657795 55.7803468,84.838403 55.7803468,75 L55.7803468,75 Z M73.8439306,0 C38.2947977,0 8.52601156,23.9543726 0.144508671,56.4638783 C0.144508671,56.7490494 0,56.891635 0,57.1768061 C0,59.1730038 1.58959538,60.7414449 3.61271676,60.7414449 L34.2485549,60.7414449 C35.6936416,60.7414449 36.9942197,59.8859316 37.5722543,58.6026616 C43.9306358,45.0570342 57.6589595,35.6463878 73.8439306,35.6463878 C95.8092486,35.6463878 113.728324,53.3269962 113.728324,75 C113.728324,96.6730038 95.8092486,114.353612 73.8439306,114.353612 C57.8034682,114.353612 43.9306358,104.942966 37.5722543,91.3973384 C36.9942197,90.1140684 35.6936416,89.2585551 34.2485549,89.2585551 L3.61271676,89.2585551 C1.58959538,89.2585551 0,90.8269962 0,92.8231939 C0,93.108365 0,93.2509506 0.144508671,93.5361217 C8.52601156,126.045627 38.2947977,150 73.8439306,150 C115.895954,150 150,116.34981 150,74.8574144 C150,33.5076046 115.895954,0 73.8439306,0 Z" fill="#838383" fill-rule="nonzero"></path>
  </g>
</svg>
