<svg height="16" viewBox="0 0 16 16" width="16" xmlns="http://www.w3.org/2000/svg"><path d="m3.5 15-.5-.5020264v-12.9979736l.5-.5h5.7l.3.1 3.4 3.5.1.4v9.4986929l-.4955068.5013071zm8.5-.9995055v-8.0004945h-4v-4h-4v12.0004945zm-5-3.5004945v1.5h-1v-1.5zm-2 0v1.5h-1v-1.5zm4 1.5h-1v-1.5h1v-.5l1.0298575-.25746437c.418336-.10458401.8422465.14976225.9468305.56809827.0154829.0619317.023312.1255284.023312.1893661 0 .4312109-.3495655.7807764-.7807764.7807764-.0638377 0-.1274344-.0078291-.1893661-.023312l-1.0298575-.2574644zm-3-3v1.5h-1v-1.5zm2 0v1.5h-1v-1.5zm1-7 2.903 3h-2.903z" fill="#c5c5c5" fill-rule="evenodd"/></svg>