<svg height="16" viewBox="0 0 16 16" width="16" xmlns="http://www.w3.org/2000/svg"><path d="m8 1c3.8659932 0 7 3.13400675 7 7 0 3.8659932-3.1340068 7-7 7-3.86599325 0-7-3.1340068-7-7 0-3.86599325 3.13400675-7 7-7zm0 1c-3.3137085 0-6 2.6862915-6 6s2.6862915 6 6 6 6-2.6862915 6-6-2.6862915-6-6-6zm2.1213203 3.17157288.7071068.70710678-2.1214271 2.12132034 2.1214271 2.1213203-.7071068.7071068-2.1213203-2.1214271-2.12132034 2.1214271-.70710678-.7071068 2.12142712-2.1213203-2.12142712-2.12132034.70710678-.70710678 2.12132034 2.12142712z" fill="#c5c5c5" fill-rule="evenodd"/></svg>