<svg height="19" viewBox="0 0 20 19" width="20" xmlns="http://www.w3.org/2000/svg"><path d="m10.458388 0c5.2700548 0 9.541612 4.25487688 9.541612 9.5009275 0 5.2460508-4.2713173 9.4990725-9.541612 9.4990725-3.21059582 0-6.05090534-1.5804095-7.77948159-4.0024839l-.16844616.0024839c1.01604552 0 1.96801005-.2732201 2.78584862-.7499073 1.28345333 1.3831076 3.12121573 2.2499073 5.16188303 2.2499073 3.8840703 0 7.0313478-3.1332786 7.0313478-6.9989748 0-3.86569619-3.1477974-7.0010252-7.0313478-7.0010252-2.0399738 0-3.87741359.86686635-5.16136625 2.25083018-.77108119-.45042861-1.66306687-.71946584-2.61573099-.74825525 1.72783486-2.42230679 4.56759686-4.00257493 7.77729334-4.00257493zm.0012453 6.00000001c1.9415639 0 3.5152621 1.56751879 3.5152621 3.50030759s-1.5736441 3.4996924-3.5152621 3.4996924c-1.1623068 0-2.1928753-.562167-2.83256959-1.4283025.26255677-.6398605.40640909-1.3390497.40640909-2.07169749 0-.73294501-.14396909-1.43240441-.40528216-2.07186391.63875476-.86585579 1.66925926-1.42813609 2.83144266-1.42813609zm-7.94976139.99999999c1.38731316 0 2.51104859 1.1200937 2.51104859 2.5002929s-1.12373543 2.4997071-2.51104859 2.4997071c-1.38613648 0-2.50987191-1.1195079-2.50987191-2.4997071s1.12373543-2.5002929 2.50987191-2.5002929z"/></svg>