<svg viewBox="0 0 24 24" fill="#fff" xmlns="http://www.w3.org/2000/svg" class="css-bleycz"><path d="M9.1708455,11 C9.58287508,9.8350542 10.6943141,9 12,9 C13.310806,9 14.4258388,9.84161623 14.8339694,11.0137199 C14.8879703,11.0046962 14.9434367,11 15,11 L17,11 C18.1047153,11 19,10.1047153 19,9 C19,7.89528475 18.1047153,7 17,7 L8.8291545,7 C8.41712492,8.1649458 7.30568589,9 6,9 C4.34371525,9 3,7.65628475 3,6 C3,4.34371525 4.34371525,3 6,3 C7.30568589,3 8.41712492,3.8350542 8.8291545,5 L17,5 C19.2092847,5 21,6.79071525 21,9 C21,11.2092847 19.2092847,13 17,13 L15,13 C14.9434367,13 14.8879703,12.9953038 14.8339694,12.9862801 C14.4258388,14.1583838 13.310806,15 12,15 C10.6943141,15 9.58287508,14.1649458 9.1708455,13 L7,13 C5.89528475,13 5,13.8952847 5,15 C5,16.1047153 5.89528475,17 7,17 L15,17 C15.0565633,17 15.1120297,17.0046962 15.1660306,17.0137199 C15.5741612,15.8416162 16.689194,15 18,15 C19.6562847,15 21,16.3437153 21,18 C21,19.6562847 19.6562847,21 18,21 C16.689194,21 15.5741612,20.1583838 15.1660306,18.9862801 C15.1120297,18.9953038 15.0565633,19 15,19 L7,19 C4.79071525,19 3,17.2092847 3,15 C3,12.7907153 4.79071525,11 7,11 L9.1708455,11 Z M7,6 C7,5.44828475 6.55171525,5 6,5 C5.44828475,5 5,5.44828475 5,6 C5,6.55171525 5.44828475,7 6,7 C6.55171525,7 7,6.55171525 7,6 Z M13,12 C13,11.4482847 12.5517153,11 12,11 C11.4482847,11 11,11.4482847 11,12 C11,12.5517153 11.4482847,13 12,13 C12.5517153,13 13,12.5517153 13,12 Z M19,18 C19,17.4482847 18.5517153,17 18,17 C17.4482847,17 17,17.4482847 17,18 C17,18.5517153 17.4482847,19 18,19 C18.5517153,19 19,18.5517153 19,18 Z"></path></svg>
