<svg height="16" viewBox="0 0 16 16" width="16" xmlns="http://www.w3.org/2000/svg"><path d="m4 5v9h8v-9zm4.5 6c.27614237 0 .5.2238576.5.5s-.22385763.5-.5.5h-3c-.27614237 0-.5-.2238576-.5-.5s.22385763-.5.5-.5zm2-2c.2761424 0 .5.22385763.5.5s-.2238576.5-.5.5h-5c-.27614237 0-.5-.22385763-.5-.5s.22385763-.5.5-.5zm0-2c.2761424 0 .5.22385763.5.5s-.2238576.5-.5.5h-5c-.27614237 0-.5-.22385763-.5-.5s.22385763-.5.5-.5zm-2.49-5c-.551 0-1 .447-1 1s.459 1 1.01 1c.552 0 .99-.447.99-1s-.447-1-1-1zm-3.01 1h1.01c0-.53043.21071-1.03914.58579-1.41421.37507-.37508.88378-.58579 1.41421-.58579s1.03914.21071 1.41421.58579c.33340444.33339556.5369363.77238321.5780495 1.23835797l.0077405.17585203h.99v1h1.5l.5.5v10.0031504l-.5.4968496h-9l-.5-.4968496v-10.0031504l.5-.5h1.5z" fill="#c5c5c5"/></svg>