<svg height="16" viewBox="0 0 16 16" width="16" xmlns="http://www.w3.org/2000/svg"><path d="m4 7.49998077h2.06301369c.22202809-.86260385 1.00507352-1.49998077 1.93698631-1.49998077s1.71495822.63737692 1.93698631 1.49998077h2.06301369c1.4110099 0 2-.98648019 2-1.98887117s-.4878142-2.01008744-2-2.01008744c-1.4444688 0-3.79889285 0-7.06327212 0-.21039129.81563071-.92242337 1.42967165-1.78746554 1.4934921l-.14926234.00548574c-1.1045695 0-2-.8954305-2-2s.8954305-2 2-2c.93191279 0 1.71495822.63737692 1.93698631 1.49998077h7.06301369c2 0 3 1.52223843 3 3.01112883s-1 2.98991256-3 2.98991256c-.4384512 0-1.1262086 0-2.06327212 0-.22237669.86209492-1.0051763 1.49897784-1.93672788 1.49897784s-1.71435119-.63688292-1.93672788-1.49897784c-.80692238 0-1.49467975 0-2.06327212 0-1.43250322-.00102216-2 .99224529-2 1.99348354 0 1.0012382.74664899 2.0054751 2 2.0054751h7.0630137c.2220281-.8626039 1.0050735-1.4999808 1.9369863-1.4999808 1.1045695 0 2 .8954305 2 2s-.8954305 2-2 2c-.9315516 0-1.7143512-.6368829-1.9367279-1.4989778-2.94331877 0-5.29774281 0-7.0632721 0-2 0-3-1.5010222-3-3.0065165 0-1.50549438 1-2.99452493 3-2.99452493zm9 4.50001923c-.5522847 0-1 .4477153-1 1s.4477153 1 1 1 1-.4477153 1-1-.4477153-1-1-1zm-5-5c-.55228475 0-1 .44771525-1 1s.44771525 1 1 1 1-.44771525 1-1-.44771525-1-1-1zm-5-5c-.55228475 0-1 .44771525-1 1s.44771525 1 1 1 1-.44771525 1-1-.44771525-1-1-1z" fill="#c5c5c5" fill-rule="evenodd"/></svg>