<svg height="40" viewBox="0 0 40 40" width="40" xmlns="http://www.w3.org/2000/svg"><path d="m14.8747592 20c0-2.6235741 2.1579961-4.7528517 4.8169556-4.7528517 2.6589596 0 4.8169557 2.1292776 4.8169557 4.7528517s-2.1579961 4.7528517-4.8169557 4.7528517c-2.6589595.0380228-4.8169556-2.1292776-4.8169556-4.7528517zm4.8169556-20c-9.4797687 0-17.41811172 6.3878327-19.65317915 15.0570342 0 .0760456-.03853565.1140685-.03853565.1901141 0 .5323194.4238921.9505703.96339114.9505703h8.16955684c.38535645 0 .73217726-.2281369.88631982-.5703422 1.6955684-3.6121673 5.3564547-6.12167298 9.672447-6.12167298 5.8574181 0 10.6358382 4.71482888 10.6358382 10.49429658s-4.7784201 10.4942966-10.6358382 10.4942966c-4.2774566 0-7.9768786-2.5095057-9.672447-6.121673-.15414256-.3422053-.50096337-.5703422-.88631982-.5703422h-8.16955684c-.53949904 0-.96339114.4182509-.96339114.9505703 0 .0760456 0 .1140685.03853565.1901141 2.23506743 8.6692015 10.17341045 15.0570342 19.65317915 15.0570342 11.2138729 0 20.3082852-8.973384 20.3082852-20.0380228 0-11.02661598-9.0944123-19.9619772-20.3082852-19.9619772z"/></svg>
