<svg width="14px" height="14px" viewBox="0 0 14 14" version="1.1" xmlns="http://www.w3.org/2000/svg" xmlns:xlink="http://www.w3.org/1999/xlink">
    <g stroke="none" stroke-width="1" fill="none" fill-rule="evenodd">
        <path d="M4.5,0 C5.6045695,0 6.5,0.8954305 6.5,2 C6.5,2.93155158 5.86311708,3.71435119 5.00102216,3.93672788 L5,8.3029716 C5.81860747,7.89246411 6.50198503,7.65868892 7.05013269,7.60164601 L7.43194872,7.56017568 C8.13439782,7.47690405 8.84034432,7.33391851 9.38488206,6.80321462 C9.81164488,6.38729361 9.96666985,5.83340986 10.0226864,5.43998128 C9.14779505,5.22769561 8.5,4.43949813 8.5,3.5 C8.5,2.3954305 9.3954305,1.5 10.5,1.5 C11.6045695,1.5 12.5,2.3954305 12.5,3.5 C12.5,4.42288263 11.8749155,5.19976895 11.0250311,5.43037435 C10.9124882,6.60769532 10.4959358,7.74811068 9.38488206,8.10582346 L8.955351,8.23950844 L8.955351,8.23950844 L8.58920375,8.34366178 C8.53252019,8.35886994 8.47777188,8.3730803 8.42460594,8.3864092 L8.12177578,8.45673571 C8.07352783,8.46700412 8.02615651,8.47662373 7.97930894,8.48571091 L7.66206353,8.54106704 L7.16167162,8.61104125 L6.77485613,8.66114044 C6.12364051,8.74662185 5.5320218,9.04182906 5,9.54676206 L5.00102216,10.0632721 C5.86311708,10.2856488 6.5,11.0684484 6.5,12 C6.5,13.1045695 5.6045695,14 4.5,14 C3.3954305,14 2.5,13.1045695 2.5,12 C2.5,11.0680872 3.13737692,10.2850418 3.99998077,10.0630137 L3.99998077,3.93698631 C3.13737692,3.71495822 2.5,2.93191279 2.5,2 C2.5,0.8954305 3.3954305,0 4.5,0 Z M4.5,11 C3.94771525,11 3.5,11.4477153 3.5,12 C3.5,12.5522847 3.94771525,13 4.5,13 C5.05228475,13 5.5,12.5522847 5.5,12 C5.5,11.4477153 5.05228475,11 4.5,11 Z M10.5,2.5 C9.94771525,2.5 9.5,2.94771525 9.5,3.5 C9.5,4.05228475 9.94771525,4.5 10.5,4.5 C11.0522847,4.5 11.5,4.05228475 11.5,3.5 C11.5,2.94771525 11.0522847,2.5 10.5,2.5 Z M4.5,1 C3.94771525,1 3.5,1.44771525 3.5,2 C3.5,2.55228475 3.94771525,3 4.5,3 C5.05228475,3 5.5,2.55228475 5.5,2 C5.5,1.44771525 5.05228475,1 4.5,1 Z" fill="#c5c5c5"></path>
    </g>
</svg>
