<?xml version="1.0" encoding="UTF-8"?>
<svg width="26px" height="27px" viewBox="0 0 26 27" version="1.1" xmlns="http://www.w3.org/2000/svg" xmlns:xlink="http://www.w3.org/1999/xlink">
    <title>Shape</title>
    <g stroke="none" stroke-width="1" fill="none" fill-rule="evenodd">
        <g transform="translate(-40.000000, 0.000000)" fill="#C5C5C5" fill-rule="nonzero">
            <path d="M49.65,13.45 C49.65,11.725 51.05,10.325 52.775,10.325 C54.5,10.325 55.9,11.725 55.9,13.45 C55.9,15.175 54.5,16.575 52.775,16.575 C51.05,16.6 49.65,15.175 49.65,13.45 L49.65,13.45 Z M52.775,0.3 C46.625,0.3 41.475,4.5 40.025,10.2 C40.025,10.25 40,10.275 40,10.325 C40,10.675 40.275,10.95 40.625,10.95 L45.925,10.95 C46.175,10.95 46.4,10.8 46.5,10.575 C47.6,8.2 49.975,6.55 52.775,6.55 C56.575,6.55 59.675,9.65 59.675,13.45 C59.675,17.25 56.575,20.35 52.775,20.35 C50,20.35 47.6,18.7 46.5,16.325 C46.4,16.1 46.175,15.95 45.925,15.95 L40.625,15.95 C40.275,15.95 40,16.225 40,16.575 C40,16.625 40,16.65 40.025,16.7 C41.475,22.4 46.625,26.6 52.775,26.6 C60.05,26.6 65.95,20.7 65.95,13.425 C65.95,6.175 60.05,0.3 52.775,0.3 Z"></path>
        </g>
    </g>
</svg>