<?xml version="1.0" encoding="UTF-8"?>
<svg width="16px" height="16px" viewBox="0 0 16 16" version="1.1" xmlns="http://www.w3.org/2000/svg" xmlns:xlink="http://www.w3.org/1999/xlink">
    <title>Artboard</title>
    <g stroke="none" stroke-width="1" fill="none" fill-rule="evenodd">
        <path d="M3.5,15 L3,14.4979736 L3,1.5 L3.5,1 L9.2,1 L9.5,1.1 L12.9,4.6 L13,5 L13,14.4986929 L12.5044932,15 L3.5,15 Z M12,14.0004945 L12,6 L8,6 L8,2 L4,2 L4,14.0004945 L12,14.0004945 Z M7,10.5 L7,12 L6,12 L6,10.5 L7,10.5 Z M5,10.5 L5,12 L4,12 L4,10.5 L5,10.5 Z M9,12 L8,12 L8,10.5 L9,10.5 L9,10 L10.0298575,9.74253563 C10.4481935,9.63795162 10.872104,9.89229788 10.976688,10.3106339 C10.9921709,10.3725656 11,10.4361623 11,10.5 C11,10.9312109 10.6504345,11.2807764 10.2192236,11.2807764 C10.1553859,11.2807764 10.0917892,11.2729473 10.0298575,11.2574644 L9,11 L9,12 Z M6,9 L6,10.5 L5,10.5 L5,9 L6,9 Z M8,9 L8,10.5 L7,10.5 L7,9 L8,9 Z M9,2 L11.903,5 L9,5 L9,2 Z" fill="#C5C5C5"></path>
    </g>
</svg>