<svg height="14" viewBox="0 0 10 14" width="10" xmlns="http://www.w3.org/2000/svg"><path d="m240.5 56-.5-.5020264v-12.9979736l.5-.5h5.7l.3.1 3.4 3.5.1.4v9.4986929l-.495507.5013071zm8.5-.9995055v-8.0004945h-4v-4h-4v12.0004945zm-5-3.5004945v1.5h-1v-1.5zm-2 0v1.5h-1v-1.5zm4 1.5h-1v-1.5h1v-.5l1.029857-.2574644c.418337-.104584.842247.1497623.946831.5680983.015483.0619317.023312.1255284.023312.1893661 0 .4312109-.349566.7807764-.780776.7807764-.063838 0-.127435-.0078291-.189367-.023312l-1.029857-.2574644zm-3-3v1.5h-1v-1.5zm2 0v1.5h-1v-1.5zm1-7 2.903 3h-2.903z" fill="#c5c5c5" fill-rule="evenodd" transform="translate(-240 -42)"/></svg>