<svg height="14" viewBox="0 0 10 14" width="10" xmlns="http://www.w3.org/2000/svg"><path d="m216.5 56-.5-.5020264v-12.9979736l.5-.5h5.7l.3.1 3.4 3.5.1.4v9.4986929l-.495507.5013071zm8.5-.9995055v-8.0004945h-4v-4h-4v12.0004945zm-3-12.0004945 2.903 3h-2.903zm2 8c0 .2761424-.223858.5-.5.5h-5c-.276142 0-.5-.2238576-.5-.5s.223858-.5.5-.5h5c.276142 0 .5.2238576.5.5zm-2 2c0 .2761424-.223858.5-.5.5h-3c-.276142 0-.5-.2238576-.5-.5s.223858-.5.5-.5h3c.276142 0 .5.2238576.5.5zm-3.5-4.5h5c.276142 0 .5.2238576.5.5s-.223858.5-.5.5h-5c-.276142 0-.5-.2238576-.5-.5s.223858-.5.5-.5z" fill="#c5c5c5" fill-rule="evenodd" transform="translate(-216 -42)"/></svg>