<?xml version="1.0" encoding="UTF-8"?>
<svg width="16px" height="16px" viewBox="0 0 16 16" version="1.1" xmlns="http://www.w3.org/2000/svg" xmlns:xlink="http://www.w3.org/1999/xlink">
    <title>Artboard</title>
    <g stroke="none" stroke-width="1" fill="none" fill-rule="evenodd">
        <path d="M3.5,15 L3,14.4979736 L3,1.5 L3.5,1 L9.2,1 L9.5,1.1 L12.9,4.6 L13,5 L13,14.4986929 L12.5044932,15 L3.5,15 Z M12,14.0004945 L12,6 L8,6 L8,2 L4,2 L4,14.0004945 L12,14.0004945 Z M9,2 L11.903,5 L9,5 L9,2 Z M11,10 C11,10.2761424 10.7761424,10.5 10.5,10.5 L5.5,10.5 C5.22385763,10.5 5,10.2761424 5,10 C5,9.72385763 5.22385763,9.5 5.5,9.5 L10.5,9.5 C10.7761424,9.5 11,9.72385763 11,10 Z M9,12 C9,12.2761424 8.77614237,12.5 8.5,12.5 L5.5,12.5 C5.22385763,12.5 5,12.2761424 5,12 C5,11.7238576 5.22385763,11.5 5.5,11.5 L8.5,11.5 C8.77614237,11.5 9,11.7238576 9,12 Z M5.5,7.5 L10.5,7.5 C10.7761424,7.5 11,7.72385763 11,8 C11,8.27614237 10.7761424,8.5 10.5,8.5 L5.5,8.5 C5.22385763,8.5 5,8.27614237 5,8 C5,7.72385763 5.22385763,7.5 5.5,7.5 Z" fill="#C5C5C5"></path>
    </g>
</svg>