<svg height="14" viewBox="0 0 14 14" width="14" xmlns="http://www.w3.org/2000/svg"><path d="m115 47.4999808h2.063014c.222028-.8626039 1.005073-1.4999808 1.936986-1.4999808s1.714958.6373769 1.936986 1.4999808h2.063014c1.41101 0 2-.9864802 2-1.9888712s-.487814-2.0100874-2-2.0100874c-1.444469 0-3.798893 0-7.063272 0-.210391.8156307-.922423 1.4296716-1.787466 1.4934921l-.149262.0054857c-1.104569 0-2-.8954305-2-2s.895431-2 2-2c.931913 0 1.714958.6373769 1.936986 1.4999808h7.063014c2 0 3 1.5222384 3 3.0111288s-1 2.9899126-3 2.9899126c-.438451 0-1.126209 0-2.063272 0-.222377.8620949-1.005176 1.4989778-1.936728 1.4989778s-1.714351-.6368829-1.936728-1.4989778c-.806922 0-1.49468 0-2.063272 0-1.432503-.0010222-2 .9922453-2 1.9934835s.746649 2.0054751 2 2.0054751h7.063014c.222028-.8626039 1.005073-1.4999808 1.936986-1.4999808 1.104569 0 2 .8954305 2 2s-.895431 2-2 2c-.931552 0-1.714351-.6368829-1.936728-1.4989778-2.943319 0-5.297743 0-7.063272 0-2 0-3-1.5010222-3-3.0065165 0-1.5054944 1-2.9945249 3-2.9945249zm9 4.5000192c-.552285 0-1 .4477153-1 1s.447715 1 1 1 1-.4477153 1-1-.447715-1-1-1zm-5-5c-.552285 0-1 .4477153-1 1s.447715 1 1 1 1-.4477153 1-1-.447715-1-1-1zm-5-5c-.552285 0-1 .4477153-1 1s.447715 1 1 1 1-.4477153 1-1-.447715-1-1-1z" fill="#c5c5c5" fill-rule="evenodd" transform="translate(-112 -41)"/></svg>