<?xml version="1.0" encoding="UTF-8"?>
<svg width="16px" height="16px" viewBox="0 0 16 16" version="1.1" xmlns="http://www.w3.org/2000/svg" xmlns:xlink="http://www.w3.org/1999/xlink">
    <title>Artboard</title>
    <g stroke="none" stroke-width="1" fill="none" fill-rule="evenodd">
        <path d="M13.0001361,8.00872462 L13.0860284,8.00388674 L13.0860284,8.00388674 L13.7535549,8.00767164 L13.7535549,8.00767164 L14.0021418,8.0131868 L14.0021418,8.0131868 C13.9985986,10.0307779 12.9780975,11.9009932 11.3182245,13.0010196 L14,13 L14,14 L10.5,14 L10,13.5 L10,10 L11,10 L11.001111,11.9994078 C12.2647675,11.0516064 12.9975829,9.56691481 13.0001361,8.00872462 Z M5.5,2 L6,2.5 L6,6 L5,6 L4.9997306,3.99931082 C3.45046057,5.16077907 2.70162923,7.12555623 3.10954447,9.04129354 C3.54348942,11.079277 5.19557234,12.6346408 7.256,12.945 L6.952,13.909 C4.0872796,13.3999915 2.00021424,10.9095898 2,8 C2,5.9135625 3.06479488,4.07587656 4.68146843,3.00100716 L2,3 L2,2 L5.5,2 Z M13.2855339,2 L13.9926407,2.70710678 L12.578,4.121 L13.9926407,5.53553391 L13.2855339,6.24264069 L11.871,4.828 L10.4571068,6.24264069 L9.75,5.53553391 L11.164,4.121 L9.75,2.70710678 L10.4571068,2 L11.871,3.414 L13.2855339,2 Z" fill="#C5C5C5"></path>
    </g>
</svg>