<?xml version="1.0" encoding="UTF-8"?>
<svg width="16px" height="16px" viewBox="0 0 16 16" version="1.1" xmlns="http://www.w3.org/2000/svg" xmlns:xlink="http://www.w3.org/1999/xlink">
    <title>Artboard</title>
    <g stroke="none" stroke-width="1" fill="none" fill-rule="evenodd">
        <path d="M13.767767,10.0251263 L14.4748737,10.732233 L12.7071068,12.5 L14.4748737,14.267767 L13.767767,14.9748737 L12,13.2071068 L10.232233,14.9748737 L9.52512627,14.267767 L11.2928932,12.5 L9.52512627,10.732233 L10.232233,10.0251263 L12,11.7928932 L13.767767,10.0251263 Z M14,2 L14,5.5 L13.5,6 L10,6 L10,5 L12.0002905,4.99992162 C11.0880792,3.78552351 9.63575935,3 7.99998,3 C5.2386,3 3,5.23858 3,8 C3,10.7614 5.2386,13 7.99998,13 L7.99998,13 L7.99998,14 C4.6863,14 2,11.3137 2,8 C2,4.68629 4.6863,2 7.99998,2 C10.0872783,2 11.925637,3.06585029 13.0004888,4.68297757 L13.0004888,4.68297757 L13,2 L14,2 Z" fill="#C5C5C5"></path>
    </g>
</svg>