<?xml version="1.0" encoding="UTF-8"?>
<svg width="16px" height="16px" viewBox="0 0 16 16" version="1.1" xmlns="http://www.w3.org/2000/svg" xmlns:xlink="http://www.w3.org/1999/xlink">
    <title>Artboard</title>
    <g stroke="none" stroke-width="1" fill="none" fill-rule="evenodd">
        <path d="M3,2 L2.99951121,4.68297757 C4.07436304,3.06585029 5.91272166,2 8.00002,2 C11.3137,2 14,4.68629 14,8 C14,11.3137 11.3137,14 8.00002,14 C5.32522,14 3.05922,12.2497 2.28485,9.83199 L3.23835,9.52968 C3.88457,11.5429 5.77213,13 8.00002,13 C10.7614,13 13,10.7614 13,8 C13,5.23858 10.7614,3 8.00002,3 C6.36424065,3 4.91192084,3.78552351 3.99970947,4.99992162 L6,5 L6,6 L2.5,6 L2,5.5 L2,2 L3,2 Z" fill="#C5C5C5"></path>
    </g>
</svg>