<svg height="16" viewBox="0 0 16 16" width="16" xmlns="http://www.w3.org/2000/svg"><path d="m8.99 2.08c2.66016.44491743 4.6968503 2.60962774 4.9789782 5.29194145.2373312 2.25641138-.8159877 4.41288705-2.6502646 5.62934925l2.6812864-.0012907v1h-3.5l-.5-.5v-3.5h1l.000815 1.9996298c1.5423118-1.1566278 2.2939794-3.11298662 1.8924967-5.0267277-.4179347-1.99216273-1.9986679-3.52441292-3.98587644-3.89100271l-.22243526-.03589939zm-3.49-.08.5.5v3.5h-1l-.0002694-2.00068918c-1.54927003 1.16146825-2.29810137 3.12624541-1.89018613 5.04198272.43394495 2.03798346 2.08602787 3.59334726 4.14645553 3.90370646l-.304.964c-2.8647204-.5090085-4.95178576-2.9994102-4.952-5.909 0-2.0864375 1.06479488-3.92412344 2.68146843-4.99899284l-2.68146843-.00100716v-1z" fill="#c5c5c5" fill-rule="evenodd"/></svg>