<svg height="14" viewBox="0 0 13 14" width="13" xmlns="http://www.w3.org/2000/svg"><path d="m65.180019 43c3.4131303 0 6.1800191 2.6862915 6.1800191 6s-2.7668888 6-6.1800191 6c-3.4131302 0-6.180019-2.6862915-6.180019-6s2.7668888-6 6.180019-6zm0 1c-2.8442752 0-5.1500158 2.2385763-5.1500158 5s2.3057406 5 5.1500158 5c2.8442753 0 5.1500159-2.2385763 5.1500159-5s-2.3057406-5-5.1500159-5zm0 2c.2844276 0 .5150016.2238576.5150016.5v2.092l1.5191246 1.475767c.2011207.1952621.2011207.5118446 0 .7071067-.2011206.1952622-.5272015.1952622-.7283222 0l-1.8208055-1.7677669.00721-.0071068h-.00721v-2.5c0-.2761424.230574-.5.5150015-.5zm5.2124961-2.9464466 1.4566444 1.4142136c.2011207.1952621.2011207.5118446 0 .7071067-.2011206.1952622-.5272016.1952622-.7283222 0l-1.4566445-1.4142135c-.2011206-.1952622-.2011206-.5118447 0-.7071068.2011207-.1952622.5272016-.1952622.7283223 0zm-3.6674913-2.0535534c.2844275 0 .5150016.2238576.5150016.5s-.2305741.5-.5150016.5h-3.0900095c-.2844275 0-.5150016-.2238576-.5150016-.5s.2305741-.5.5150016-.5z" fill="#c5c5c5" fill-rule="evenodd" transform="translate(-59 -41)"/></svg>