<svg height="16" viewBox="0 0 16 16" width="16" xmlns="http://www.w3.org/2000/svg"><path d="m8.5 6.06327212v3.87345576c0 1.04590392.5062717 2.06327212 2.0032573 2.06327212s1.9967235-1.0148347 1.9967235-2.06301369c-.8626039-.22202809-1.4999808-1.00507352-1.4999808-1.93698631 0-1.1045695.8954305-2 2-2s2 .8954305 2 2c0 .93155158-.6368829 1.71435119-1.4989778 1.93672788 0 1.06822272-.5010222 3.06327212-2.9977649 3.06327212-2.49674273 0-3.0032573-1.9901634-3.0032573-3.06327212 0-.64283744 0-3.4425472 0-3.87345576 0-1.05367718-.5076585-2.06327212-1.99429545-2.06327212s-2.00468239 1.01212313-2.00468239 2.06327212c.81563071.21039129 1.42967165.92242337 1.4934921 1.78746554l.00548574.14926234c0 1.1045695-.8954305 2-2 2s-2-.8954305-2-2c0-.93191279.63737692-1.71495822 1.49998077-1.93698631 0-1.05989091.50001923-3.06301369 3.00572378-3.06301369s2.99429545 2.00258343 2.99429545 3.06327212zm-5.5.93672788c-.55228475 0-1 .44771525-1 1s.44771525 1 1 1 1-.44771525 1-1-.44771525-1-1-1zm10 0c-.5522847 0-1 .44771525-1 1s.4477153 1 1 1 1-.44771525 1-1-.4477153-1-1-1z" fill="#c5c5c5" fill-rule="evenodd"/></svg>