<svg height="27" viewBox="0 0 26 27" width="26" xmlns="http://www.w3.org/2000/svg"><path d="m9.65 13.15c0-1.725 1.4-3.125 3.125-3.125s3.125 1.4 3.125 3.125-1.4 3.125-3.125 3.125c-1.725.025-3.125-1.4-3.125-3.125zm3.125-13.15c-6.15 0-11.3 4.2-12.75 9.9 0 .05-.025.075-.025.125 0 .35.275.625.625.625h5.3c.25 0 .475-.15.575-.375 1.1-2.375 3.475-4.025 6.275-4.025 3.8 0 6.9 3.1 6.9 6.9s-3.1 6.9-6.9 6.9c-2.775 0-5.175-1.65-6.275-4.025-.1-.225-.325-.375-.575-.375h-5.3c-.35 0-.625.275-.625.625 0 .05 0 .075.025.125 1.45 5.7 6.6 9.9 12.75 9.9 7.275 0 13.175-5.9 13.175-13.175 0-7.25-5.9-13.125-13.175-13.125z" fill="#343434" transform="translate(0 .3)"/></svg>
