<svg viewBox="0 0 24 24" fill="#fff" xmlns="http://www.w3.org/2000/svg"><path d="M12,20 C15.8659932,20 19,16.8659932 19,13 C19,9.13400675 15.8659932,6 12,6 C8.13400675,6 5,9.13400675 5,13 C5,16.8659932 8.13400675,20 12,20 Z M12,22 C7.02943725,22 3,17.9705627 3,13 C3,8.02943725 7.02943725,4 12,4 C16.9705627,4 21,8.02943725 21,13 C21,17.9705627 16.9705627,22 12,22 Z M11,1 L13,1 C13.5522847,1 14,1.44771525 14,2 C14,2.55228475 13.5522847,3 13,3 L11,3 C10.4477153,3 10,2.55228475 10,2 C10,1.44771525 10.4477153,1 11,1 Z M19.7781746,3.80761184 L21.1923882,5.22182541 C21.5829124,5.6123497 21.5829124,6.24551468 21.1923882,6.63603897 C20.8018639,7.02656326 20.1686989,7.02656326 19.7781746,6.63603897 L18.363961,5.22182541 C17.9734367,4.83130112 17.9734367,4.19813614 18.363961,3.80761184 C18.7544853,3.41708755 19.3876503,3.41708755 19.7781746,3.80761184 Z M13,9 C13,8.44771525 12.5522847,8 12,8 C11.4477153,8 11,8.44771525 11,9 L11,13 C11,13.2652165 11.1053568,13.5195704 11.2928932,13.7071068 L13.2928932,15.7071068 C13.6834175,16.0976311 14.3165825,16.0976311 14.7071068,15.7071068 C15.0976311,15.3165825 15.0976311,14.6834175 14.7071068,14.2928932 L13,12.5857864 L13,9 Z"></path></svg>
