<svg viewBox="0 0 24 24" fill="#fff" xmlns="http://www.w3.org/2000/svg"><path d="M16.5839563,14 C15.8123997,15.7659048 14.050319,17 12,17 C9.94968096,17 8.18760031,15.7659048 7.41604369,14 L2,14 L2,10 L7.41604369,10 C8.18760031,8.23409522 9.94968096,7 12,7 C14.050319,7 15.8123997,8.23409522 16.5839563,10 L22,10 L22,14 L16.5839563,14 Z M12,14.5 C13.3807119,14.5 14.5,13.3807119 14.5,12 C14.5,10.6192881 13.3807119,9.5 12,9.5 C10.6192881,9.5 9.5,10.6192881 9.5,12 C9.5,13.3807119 10.6192881,14.5 12,14.5 Z"></path></svg>
