<svg viewBox="0 0 24 24" fill="#fff" xmlns="http://www.w3.org/2000/svg"><path viewBox="0 0 24 24" fill-rule="evenodd" d="M11,19.381966 L11,11.618034 L5,8.61803399 L5,16.381966 L11,19.381966 Z M6.23606798,7 L12,9.88196601 L17.763932,7 L12,4.11803399 L6.23606798,7 Z M19,8.61803399 L13,11.618034 L13,19.381966 L19,16.381966 L19,8.61803399 Z M12.4472136,21.8944272 C12.1656861,22.0351909 11.8343139,22.0351909 11.5527864,21.8944272 L3.5527864,17.8944272 C3.21400238,17.7250352 3,17.3787721 3,17 L3,7 C3,6.62122794 3.21400238,6.27496482 3.5527864,6.10557281 L11.5527864,2.10557281 C11.8343139,1.96480906 12.1656861,1.96480906 12.4472136,2.10557281 L20.4472136,6.10557281 C20.7859976,6.27496482 21,6.62122794 21,7 L21,17 C21,17.3787721 20.7859976,17.7250352 20.4472136,17.8944272 L12.4472136,21.8944272 Z"></path></svg>
