<svg viewBox="0 0 24 24" xmlns="http://www.w3.org/2000/svg"><path d="m15.1589362 12h-6.31797169c-.62266775 0-1.1281631.5132973-1.1281631 1.1459016 0 .632453.50549535 1.1457504 1.1281631 1.1457504h6.31797169c.6227174 0 1.1283121-.5132974 1.1283121-1.1457504 0-.6326043-.5055947-1.1459016-1.1283121-1.1459016zm0 4.1250946h-6.31797169c-.62266775 0-1.1281631.5132973-1.1281631 1.1456998 0 .6324026.50549535 1.1459521 1.1281631 1.1459521h6.31797169c.6227174 0 1.1283121-.5135495 1.1283121-1.1459521 0-.6324025-.5055947-1.1456998-1.1283121-1.1456998zm-11.9589362 5.0416646c0 1.0128731.80783889 1.8332408 1.80517023 1.8332408h13.98956017c.9972817 0 1.8052696-.8203677 1.8052696-1.8332408v-15.58350574c0-1.01282269-.8079879-1.8332913-1.8052696-1.8332913h-3.6780412c-.3110855-1.56743605-1.6787094-2.74996216-3.3166892-2.74996216-1.6381288 0-3.00565339 1.18252611-3.31668924 2.74996216h-3.67814053c-.99733134 0-1.80517023.82046861-1.80517023 1.8332913zm3.24928655-15.12509464h2.1659758v.82495839c0 .55900225.44251332 1.00838336.99296035 1.00838336h4.7833062c.5503477 0 .9929604-.44943156.9929604-1.00838336v-.82495839h2.1659758c.5503974 0 .99301.44943156.99301 1.00848426v12.64976538c0 .5591536-.4426126 1.0084338-.99301 1.0084338h-11.10117855c-.5504967 0-.99286101-.4492802-.99286101-1.0084338v-12.64981583c0-.5590527.44236431-1.00843381.99286101-1.00843381zm4.42250065-1.60421185c0-.63245296.5054954-1.1458512 1.1281631-1.1458512.6227175 0 1.1282625.51339824 1.1282625 1.1458512 0 .6325034-.505545 1.14580075-1.1282625 1.14580075-.6226677 0-1.1281631-.51329735-1.1281631-1.14580075z" fill-rule="evenodd" fill="#000"/></svg>
