<svg height="16" viewBox="0 0 16 16" width="16" xmlns="http://www.w3.org/2000/svg"><path d="m3.5 15-.5-.5020264v-12.9979736l.5-.5h5.7l.3.1 3.4 3.5.1.4v9.4986929l-.4955068.5013071zm8.5-.9995055v-8.0004945h-4v-4h-4v12.0004945zm-3-12.0004945 2.903 3h-2.903zm2 8c0 .2761424-.2238576.5-.5.5h-5c-.27614237 0-.5-.2238576-.5-.5 0-.27614237.22385763-.5.5-.5h5c.2761424 0 .5.22385763.5.5zm-2 2c0 .2761424-.22385763.5-.5.5h-3c-.27614237 0-.5-.2238576-.5-.5s.22385763-.5.5-.5h3c.27614237 0 .5.2238576.5.5zm-3.5-4.5h5c.2761424 0 .5.22385763.5.5s-.2238576.5-.5.5h-5c-.27614237 0-.5-.22385763-.5-.5s.22385763-.5.5-.5z" fill="#424242" fill-rule="evenodd"/></svg>