<svg height="16" viewBox="0 0 16 16" width="16" xmlns="http://www.w3.org/2000/svg"><path d="m3.5 15-.5-.5020264v-12.9979736l.5-.5h5.7l.3.1 3.4 3.5.1.4v9.4986929l-.4955068.5013071zm8.5-.9995055v-8.0004945h-4v-4h-4v12.0004945zm-3.40409376-4.45096468c.10330101-.12498886.32781919-.14061247.4614245-.04687083l.05107487.04687083 1.84810919 3.06479028c.1049408.1523674.0099944.3385942-.1782326.3780968l-.0747495.0075831h-5.41381632c-.20988143 0-.33980803-.1805835-.2713282-.3310698l.03521159-.0546101 1.21575955-1.7587465c.10119284-.1224381.27853627-.1399292.42004009-.0524735l.0672468.0524735.33698525.6378203c.11564895.0857066.29678396.1084451.40990157.0412291l.05027262-.0412291zm-2.34590624-1.54952982c.41421356 0 .75.33578644.75.75s-.33578644.75-.75.75c-.41421357 0-.75-.33578644-.75-.75s.33578643-.75.75-.75zm2.75-6 2.903 3h-2.903z" fill="#424242" fill-rule="evenodd"/></svg>