<svg height="14" viewBox="0 0 10 14" width="10" xmlns="http://www.w3.org/2000/svg"><path d="m168.5 56-.5-.5020264v-12.9979736l.5-.5h5.7l.3.1 3.4 3.5.1.4v9.4986929l-.495507.5013071zm8.5-.9995055v-8.0004945h-4v-4h-4v12.0004945zm-3.404094-4.4509647c.103301-.1249888.327819-.1406124.461425-.0468708l.051075.0468708 1.848109 3.0647903c.104941.1523674.009994.3385942-.178233.3780968l-.074749.0075831h-5.413817c-.209881 0-.339808-.1805835-.271328-.3310698l.035212-.0546101 1.215759-1.7587465c.101193-.1224381.278537-.1399292.42004-.0524735l.067247.0524735.336985.6378203c.115649.0857066.296784.1084451.409902.0412291l.050273-.0412291zm-2.345906-1.5495298c.414214 0 .75.3357864.75.75s-.335786.75-.75.75-.75-.3357864-.75-.75.335786-.75.75-.75zm2.75-6 2.903 3h-2.903z" fill="#424242" fill-rule="evenodd" transform="translate(-168 -42)"/></svg>