<?xml version="1.0" encoding="UTF-8"?>
<svg width="16px" height="16px" viewBox="0 0 16 16" version="1.1" xmlns="http://www.w3.org/2000/svg" xmlns:xlink="http://www.w3.org/1999/xlink">
    <title>Artboard</title>
    <g stroke="none" stroke-width="1" fill="none" fill-rule="evenodd">
        <path d="M3.5,15 L3,14.4979736 L3,1.5 L3.5,1 L9.2,1 L9.5,1.1 L12.9,4.6 L13,5 L13,14.4986929 L12.5044932,15 L3.5,15 Z M12,14.0004945 L12,6 L8,6 L8,2 L4,2 L4,14.0004945 L12,14.0004945 Z M7.02132034,8 L7.72842712,8.70710678 L6.321,10.114 L7.72842712,11.5213203 L7.02132034,12.2284271 L4.907,10.114 L7.02132034,8 Z M9.00710678,8 L11.1284271,10.1071068 L9.00710678,12.2284271 L8.3,11.5213203 L9.707,10.114 L8.3,8.70710678 L9.00710678,8 Z M9,2 L11.903,5 L9,5 L9,2 Z" fill="#424242"></path>
    </g>
</svg>