<svg height="16" viewBox="0 0 16 16" width="16" xmlns="http://www.w3.org/2000/svg"><path d="m8 1c.64258 0 1.26237.08431 1.85938.25293.59702.16406 1.15522.39876 1.67482.7041.5195.30078.9912.66537 1.415 1.09375.4284.42383.793.89551 1.0938 1.41504.3053.51953.54 1.0778.7041 1.6748.1686.59701.2529 1.2168.2529 1.85938s-.0843 1.26237-.2529 1.85938c-.1641.59702-.3988 1.15522-.7041 1.67482-.3008.5195-.6654.9935-1.0938 1.4219-.4238.4238-.8955.7884-1.415 1.0937-.5196.3008-1.0778.5355-1.67482.7041-.59701.1641-1.2168.2461-1.85938.2461s-1.26237-.082-1.85938-.2461c-.597-.1686-1.15527-.4033-1.6748-.7041-.51953-.3053-.99349-.6699-1.42187-1.0937-.42383-.4284-.78842-.9024-1.09375-1.4219-.30079-.5196-.53549-1.0755-.70411-1.66799-.16406-.597-.24609-1.21907-.24609-1.86621 0-.64258.08203-1.26237.24609-1.85938.16862-.597.40332-1.15527.70411-1.6748.30533-.51953.66992-.99121 1.09375-1.41504.42838-.42838.90234-.79297 1.42187-1.09375.51953-.30534 1.07552-.54004 1.66797-.7041.597-.16862 1.21907-.25293 1.86621-.25293zm5.5303 4.375c-.1732-.36914-.3828-.71549-.6289-1.03906-.2461-.32813-.5196-.62663-.8203-.89551-.3008-.26888-.6267-.50814-.9776-.71777-.3509-.20964-.7178-.38054-1.1006-.5127.1641.22787.3122.4694.4444.72461.1321.25521.2483.51953.3486.79297.1048.26888.1937.54232.2666.82031.0729.278.1367.55371.1914.82715zm.5947 2.625c0-.60612-.0843-1.18945-.2529-1.75h-2.4815c.0365.29167.0638.58333.0821.875.0182.28711.0273.57878.0273.875s-.0091.59017-.0273.88184c-.0183.28711-.0456.57649-.0821.86816h2.4815c.1686-.56055.2529-1.14388.2529-1.75zm-6.125 6.125c.22331 0 .43066-.0615.62207-.1846.19596-.123.37598-.2848.54004-.4853s.3099-.4261.4375-.6768c.13216-.2552.24837-.5127.34863-.7724.10026-.2598.18456-.5105.25296-.752.0683-.2415.1207-.4512.1572-.6289h-4.7168c.03646.1777.08887.3874.15723.6289s.15267.4922.25293.752c.10026.2597.21419.5172.34179.7724.13217.2507.28028.4763.44434.6768s.3418.3623.5332.4853c.19597.1231.4056.1846.62891.1846zm2.5088-4.375c.0364-.29167.0638-.58105.082-.86816.0228-.29167.0342-.58562.0342-.88184s-.0114-.58789-.0342-.875c-.0182-.29167-.0456-.58333-.082-.875h-5.01759c-.03646.29167-.06608.58333-.08887.875-.01823.28711-.02734.57878-.02734.875s.00911.59017.02734.88184c.02279.28711.05241.57649.08887.86816zm-8.6338-1.75c0 .60612.08431 1.18945.25293 1.75h2.48145c-.03646-.29167-.06381-.58105-.08204-.86816-.01823-.29167-.02734-.58562-.02734-.88184s.00911-.58789.02734-.875c.01823-.29167.04558-.58333.08204-.875h-2.48145c-.16862.56055-.25293 1.14388-.25293 1.75zm6.125-6.125c-.22331 0-.43294.06152-.62891.18457-.1914.12305-.36914.28483-.5332.48535s-.31217.42839-.44434.6836c-.1276.25065-.24153.50586-.34179.76562-.10026.25977-.18457.51042-.25293.75195-.06836.24154-.12077.45118-.15723.62891h4.7168c-.0365-.17773-.0889-.38737-.1572-.62891-.0684-.24153-.1527-.49218-.25296-.75195-.10026-.25976-.21647-.51497-.34863-.76562-.1276-.25521-.27344-.48308-.4375-.6836s-.34408-.3623-.54004-.48535c-.19141-.12305-.39876-.18457-.62207-.18457zm-2.00293.33496c-.38281.13216-.74967.30306-1.10059.5127-.35091.20963-.67675.44889-.97753.71777-.30079.26888-.57422.56738-.82032.89551-.24609.32357-.45573.66992-.6289 1.03906h2.27636c.05469-.27344.11849-.54915.19141-.82715.07292-.27799.15951-.55143.25977-.82031.10481-.27344.2233-.53776.35546-.79297.13217-.25521.28028-.49674.44434-.72461zm-3.52734 8.41504c.17317.3691.38281.7178.6289 1.0459.2461.3236.51953.6198.82032.8887.30078.2689.62662.5081.97753.7177.35092.2097.71778.3806 1.10059.5127-.16406-.2278-.31217-.4694-.44434-.7246-.13216-.2552-.25065-.5172-.35546-.7861-.10026-.2734-.18685-.5492-.25977-.8272-.07292-.2779-.13672-.5537-.19141-.8271zm7.53317 3.165c.3828-.1321.7497-.303 1.1006-.5127.3509-.2096.6768-.4488.9776-.7177.3007-.2689.5742-.5651.8203-.8887.2461-.3281.4557-.6768.6289-1.0459h-2.2764c-.0547.2734-.1185.5492-.1914.8271-.0729.278-.1618.5538-.2666.8272-.1003.2689-.2165.5309-.3486.7861-.1322.2552-.2803.4968-.4444.7246z" fill="#424242"/></svg>