<svg height="14" viewBox="0 0 14 14" width="14" xmlns="http://www.w3.org/2000/svg"><path d="m299 42c3.865993 0 7 3.1340068 7 7s-3.134007 7-7 7-7-3.1340068-7-7 3.134007-7 7-7zm0 1c-3.313708 0-6 2.6862915-6 6s2.686292 6 6 6 6-2.6862915 6-6-2.686292-6-6-6zm2.12132 3.1715729.707107.7071068-2.121427 2.1213203 2.121427 2.1213203-.707107.7071068-2.12132-2.1214271-2.12132 2.1214271-.707107-.7071068 2.121427-2.1213203-2.121427-2.1213203.707107-.7071068 2.12132 2.1214271z" fill="#424242" fill-rule="evenodd" transform="translate(-292 -42)"/></svg>