<?xml version="1.0" encoding="UTF-8"?>
<svg width="16px" height="16px" viewBox="0 0 16 16" version="1.1" xmlns="http://www.w3.org/2000/svg" xmlns:xlink="http://www.w3.org/1999/xlink">
    <title>Artboard</title>
    <g stroke="none" stroke-width="1" fill="none" fill-rule="evenodd">
        <path d="M8,1 C11.8659932,1 15,4.13400675 15,8 C15,11.8659932 11.8659932,15 8,15 C4.13400675,15 1,11.8659932 1,8 C1,4.13400675 4.13400675,1 8,1 Z M8,2 C4.6862915,2 2,4.6862915 2,8 C2,11.3137085 4.6862915,14 8,14 C11.3137085,14 14,11.3137085 14,8 C14,4.6862915 11.3137085,2 8,2 Z M10.1213203,5.17157288 L10.8284271,5.87867966 L8.707,8 L10.8284271,10.1213203 L10.1213203,10.8284271 L8,8.707 L5.87867966,10.8284271 L5.17157288,10.1213203 L7.293,8 L5.17157288,5.87867966 L5.87867966,5.17157288 L8,7.293 L10.1213203,5.17157288 Z" fill="#424242"></path>
    </g>
</svg>