<svg height="16" viewBox="0 0 16 16" width="16" xmlns="http://www.w3.org/2000/svg"><path d="m4 2c.19018402 0 .37642456.05423337.53687549.15633851l8.13737071 5.17832684c.4659414.29650814.6032942.9145956.306786 1.38053698-.0785787.1234808-.1833052.2282073-.306786.30678599l-8.13737071 5.17832688c-.46594137.2965081-1.08402883.1591553-1.38053698-.306786-.10210514-.160451-.15633851-.3466915-.15633851-.5368755v-10.3566537c0-.55228475.44771525-1 1-1zm.11 1.26679408c-.06075132 0-.11.04924867-.11.11v9.60306552c0 .0206162.00579364.0408174.01672019.0582999.03219813.051517.10006267.067178.15157969.0349799l7.68245242-4.80153275c.0141646-.00885288.0261271-.02081533.0349799-.03497993.0321982-.05151702.0165371-.11938156-.0349799-.1515797l-7.68245242-4.80153276c-.01748247-.01092655-.03768371-.01672018-.05829988-.01672018z" fill="#424242" fill-rule="evenodd"/></svg>