<svg height="16" viewBox="0 0 16 16" width="16" xmlns="http://www.w3.org/2000/svg"><path d="m13.767767 10.0251263.7071067.7071067-1.7677669 1.767767 1.7677669 1.767767-.7071067.7071067-1.767767-1.7677669-1.767767 1.7677669-.70710673-.7071067 1.76776693-1.767767-1.76776693-1.767767.70710673-.7071067 1.767767 1.7677669zm.232233-8.0251263v3.5l-.5.5h-3.5v-1l2.0002905-.00007838c-.9122113-1.21439811-2.36453115-1.99992162-4.0003105-1.99992162-2.76138 0-4.99998 2.23858-4.99998 5 0 2.7614 2.2386 5 4.99998 5v1c-3.31368 0-5.99998-2.6863-5.99998-6 0-3.31371 2.6863-6 5.99998-6 2.0872983 0 3.925657 1.06585029 5.0005088 2.68297757l-.0004888-2.68297757z" fill="#424242" fill-rule="evenodd"/></svg>