<svg height="12" viewBox="0 0 12 12" width="12" xmlns="http://www.w3.org/2000/svg"><path d="m87 42-.0004888 2.6829776c1.0748518-1.6171273 2.9132105-2.6829776 5.0005088-2.6829776 3.31368 0 5.99998 2.68629 5.99998 6 0 3.3137-2.6863 6-5.99998 6-2.6748 0-4.9408-1.7503-5.71517-4.16801l.9535-.30231c.64622 2.01322 2.53378 3.47032 4.76167 3.47032 2.76138 0 4.99998-2.2386 4.99998-5 0-2.76142-2.2386-5-4.99998-5-1.6357794 0-3.0880992.7855235-4.0003105 1.9999216l2.0002905.0000784v1h-3.5l-.5-.5v-3.5z" fill="#424242" fill-rule="evenodd" transform="translate(-86 -42)"/></svg>