<svg height="14" viewBox="0 0 14 14" width="14" xmlns="http://www.w3.org/2000/svg"><g fill="none" fill-rule="evenodd"><circle cx="7" cy="7" fill="#7f7f7f" r="7"/><path d="m7.55984182 8.39887167v-.27521144c0-.50888153.19212874-.76332229.88275367-1.16315778.73216629-.4309915 1.1112311-.97622171 1.1112311-1.76031468 0-1.18392845-.98141438-2.00956277-2.46651762-2.00956277-1.59414928 0-2.49767363.89313901-2.52363697 2.1705355h1.40721321c.03115601-.58677156.42579883-.96583637 1.02295573-.96583637.59196422 0 .98660704.35829414.98660704.85159766 0 .49330353-.20251408.74774429-.87236833 1.14757978-.71658828.42060616-1.00218506.88794634-.93468036 1.70319532l.01038533.30117478zm-.66985426 2.48209563c.47253285 0 .85159766-.3582941.85159766-.815249 0-.45695483-.37906481-.81524897-.85159766-.81524897-.46734018 0-.84640499.35829414-.84640499.81524897 0 .4569549.37906481.815249.84640499.815249z" fill="#fff" fill-rule="nonzero"/></g></svg>