<svg height="16" viewBox="0 0 16 16" width="16" xmlns="http://www.w3.org/2000/svg"><path d="m7.18001904 3c3.41313026 0 6.18001906 2.6862915 6.18001906 6s-2.7668888 6-6.18001906 6c-3.41313027 0-6.18001904-2.6862915-6.18001904-6s2.76688877-6 6.18001904-6zm0 1c-2.84427523 0-5.15001587 2.23857625-5.15001587 5 0 2.7614237 2.30574064 5 5.15001587 5 2.84427526 0 5.15001586-2.2385763 5.15001586-5 0-2.76142375-2.3057406-5-5.15001586-5zm0 2c.28442752 0 .51500158.22385763.51500158.5v2.092l1.51912463 1.475767c.20112063.1952621.20112063.5118446 0 .7071067-.20112063.1952622-.5272016.1952622-.72832223 0l-1.82080557-1.76776692.00721002-.00710678h-.00721002v-2.5c0-.27614237.23057407-.5.51500159-.5zm5.21249606-2.94644661 1.4566444 1.41421356c.2011207.19526215.2011207.51184464 0 .70710678-.2011206.19526215-.5272016.19526215-.7283222 0l-1.4566445-1.41421356c-.2011206-.19526214-.2011206-.51184463 0-.70710678.2011207-.19526215.5272016-.19526215.7283223 0zm-3.6674913-2.05355339c.28442752 0 .51500158.22385763.51500158.5s-.23057406.5-.51500158.5h-3.09000952c-.28442752 0-.51500159-.22385763-.51500159-.5s.23057407-.5.51500159-.5z" fill="#424242" fill-rule="evenodd"/></svg>