<?xml version="1.0" encoding="UTF-8"?>
<svg width="16px" height="16px" viewBox="0 0 16 16" version="1.1" xmlns="http://www.w3.org/2000/svg" xmlns:xlink="http://www.w3.org/1999/xlink">
    <title>Artboard</title>
    <g stroke="none" stroke-width="1" fill="none" fill-rule="evenodd">
        <path d="M7.18001904,3 C10.5931493,3 13.3600381,5.6862915 13.3600381,9 C13.3600381,12.3137085 10.5931493,15 7.18001904,15 C3.76688877,15 1,12.3137085 1,9 C1,5.6862915 3.76688877,3 7.18001904,3 Z M7.18001904,4 C4.33574381,4 2.03000317,6.23857625 2.03000317,9 C2.03000317,11.7614237 4.33574381,14 7.18001904,14 C10.0242943,14 12.3300349,11.7614237 12.3300349,9 C12.3300349,6.23857625 10.0242943,4 7.18001904,4 Z M7.18001904,6 C7.46444656,6 7.69502062,6.22385763 7.69502062,6.5 L7.69502062,8.592 L9.21414525,10.067767 C9.41526588,10.2630291 9.41526588,10.5796116 9.21414525,10.7748737 C9.01302462,10.9701359 8.68694365,10.9701359 8.48582302,10.7748737 L6.66501745,9.00710678 L6.67222747,9 L6.66501745,9 L6.66501745,6.5 C6.66501745,6.22385763 6.89559152,6 7.18001904,6 Z M12.3925151,3.05355339 L13.8491595,4.46776695 C14.0502802,4.6630291 14.0502802,4.97961159 13.8491595,5.17487373 C13.6480389,5.37013588 13.3219579,5.37013588 13.1208373,5.17487373 L11.6641928,3.76066017 C11.4630722,3.56539803 11.4630722,3.24881554 11.6641928,3.05355339 C11.8653135,2.85829124 12.1913944,2.85829124 12.3925151,3.05355339 Z M8.7250238,1 C9.00945132,1 9.24002538,1.22385763 9.24002538,1.5 C9.24002538,1.77614237 9.00945132,2 8.7250238,2 L5.63501428,2 C5.35058676,2 5.12001269,1.77614237 5.12001269,1.5 C5.12001269,1.22385763 5.35058676,1 5.63501428,1 L8.7250238,1 Z" fill="#424242"></path>
    </g>
</svg>