<svg height="10" viewBox="0 0 14 10" width="14" xmlns="http://www.w3.org/2000/svg"><path d="m147.5 47.0632721v3.8734558c0 1.0459039.506272 2.0632721 2.003257 2.0632721 1.496986 0 1.996724-1.0148347 1.996724-2.0630137-.862604-.2220281-1.499981-1.0050735-1.499981-1.9369863 0-1.1045695.895431-2 2-2s2 .8954305 2 2c0 .9315516-.636883 1.7143512-1.498978 1.9367279 0 1.0682227-.501022 3.0632721-2.997765 3.0632721-2.496742 0-3.003257-1.9901634-3.003257-3.0632721 0-.6428375 0-3.4425472 0-3.8734558 0-1.0536772-.507658-2.0632721-1.994295-2.0632721s-2.004683 1.0121231-2.004683 2.0632721c.815631.2103913 1.429672.9224234 1.493492 1.7874656l.005486.1492623c0 1.1045695-.895431 2-2 2s-2-.8954305-2-2c0-.9319128.637377-1.7149582 1.499981-1.9369863 0-1.0598909.500019-3.0630137 3.005724-3.0630137 2.505704 0 2.994295 2.0025834 2.994295 3.0632721zm-5.5.9367279c-.552285 0-1 .4477153-1 1s.447715 1 1 1 1-.4477153 1-1-.447715-1-1-1zm10 0c-.552285 0-1 .4477153-1 1s.447715 1 1 1 1-.4477153 1-1-.447715-1-1-1z" fill="#424242" fill-rule="evenodd" transform="translate(-140 -44)"/></svg>